# xmcd CD database file
#
# Track frame offsets:
#	150
#	14005
#	30115
#	41998
#	61417
#	72354
#	96249
#	111683
#	128757
#	139335
#
# Disc length: 2377 seconds
#
# Revision: 0
# Processed by: cddbd v1.5.1PL0 Copyright (c) Steve Scherf et al.
# Submitted via: CDex 1.51
#
DISCID=9509470a
DTITLE=Ashtray Hearts, The - Perfect Halves
DYEAR=2005
DGENRE=Americana
TTITLE0=Rules
TTITLE1=On The Wires
TTITLE2=Exits
TTITLE3=English
TTITLE4=Perfect Halves
TTITLE5=New York
TTITLE6=Long Enough
TTITLE7=Valentine
TTITLE8=Where You Sleep
TTITLE9=Flowers
EXTD=YEAR: 2005
EXTT0=
EXTT1=
EXTT2=
EXTT3=
EXTT4=
EXTT5=
EXTT6=
EXTT7=
EXTT8=
EXTT9=
PLAYORDER=
